<svg xmlns="http://www.w3.org/2000/svg" version="1.1" xmlns:xlink="http://www.w3.org/1999/xlink" width="1000" height="1000"><metadata><rdf:RDF xmlns:rdf="http://www.w3.org/1999/02/22-rdf-syntax-ns#" xmlns:dc="http://purl.org/dc/elements/1.1/"><rdf:Description><dc:creator>RealFaviconGenerator</dc:creator><dc:source>https://realfavicongenerator.net</dc:source></rdf:Description></rdf:RDF></metadata><g clip-path="url(#SvgjsClipPath1237)"><rect width="1000" height="1000" fill="#ffffff"></rect><g transform="matrix(0.8748906386701663,0,0,0.8748906386701663,0,174.50568678915135)"><svg xmlns="http://www.w3.org/2000/svg" version="1.1" id="Layer_1" viewBox="0 0 1143 744.08" width="1143" height="744.08"><defs>
    <style>
      .st0 {
        fill: #231f20;
      }
    </style>
  <clipPath id="SvgjsClipPath1237"><rect width="1000" height="1000" x="0" y="0" rx="500" ry="500"></rect></clipPath></defs><polygon class="st0" points="732.83 468.39 572.62 219.67 419.07 468.4 343.76 354.13 571.53 0 803.87 350.76 732.83 468.39"></polygon><path class="st0" d="M573.71,345.14c78.65,125.25,157.3,250.49,235.95,375.74-5.96,7.41-11.92,14.82-17.88,22.23-38.32-.05-76.64-.1-114.96-.15l-104.2-164.7-104.23,164.67-116.55.03c-6.02-7.47-12.04-14.95-18.06-22.42,79.98-125.13,159.95-250.26,239.93-375.4Z"></path><path class="st0" d="M159.51,186.01c74.11,121.77,154.78,239.48,230.53,360.26-27.9,43.53-55.81,87.05-83.71,130.58L0,186.01h159.51Z"></path><polygon class="st0" points="1143 186.01 837.06 676.85 753.51 546.11 985 186.01 1143 186.01"></polygon></svg></g></g></svg>